# xmcd
#
# Track frame offsets:
#	150
#	21839
#	53128
#	74241
#	86700
#	136634
#	155634
#	170355
#	199241
#	218572
#
# Disc length: 3329 seconds
#
# Revision: 1
# Processed by: cddbd v1.5.2PL0 Copyright (c) Steve Scherf et al.
# Submitted via: audiograbber 1.83.01
#
DISCID=8d0cff0a
DTITLE=Mick Abrahams - This Is!
DYEAR=2001
DGENRE=Blues
TTITLE0=My Sunday Feeling
TTITLE1=It's Breaking Me Up
TTITLE2=Serenade to a Cuckoo
TTITLE3=Move on Alone
TTITLE4=Cat's Squirrel
TTITLE5=Someday the Sun Won't Shine for You
TTITLE6=Song for Jeffrey
TTITLE7=Dharma for One
TTITLE8=Beggars Farm
TTITLE9=Rock Me Baby
EXTD=
EXTT0=
EXTT1=
EXTT2=
EXTT3=
EXTT4=
EXTT5=
EXTT6=
EXTT7=
EXTT8=
EXTT9=
PLAYORDER=
